<svg width="12" height="12" viewBox="0 0 12 12" fill="none" xmlns="http://www.w3.org/2000/svg">
<g clip-path="url(#clip0_65_1655)">
<path d="M10.77 5.60204L9.6696 4.34831L9.82293 2.68869L8.19489 2.31889L7.34253 0.884766L5.80919 1.5432L4.27585 0.884766L3.4235 2.31889L1.79545 2.68418L1.94878 4.3438L0.848389 5.60204L1.94878 6.85577L1.79545 8.51989L3.4235 8.8897L4.27585 10.3238L5.80919 9.66087L7.34253 10.3193L8.19489 8.88519L9.82293 8.51538L9.6696 6.85577L10.77 5.60204ZM4.90723 7.85695L3.1033 6.05302L3.73918 5.41713L4.90723 6.58067L7.8792 3.6087L8.51508 4.24909L4.90723 7.85695Z" fill="#31865D"/>
</g>
<defs>
<clipPath id="clip0_65_1655">
<rect width="10.8236" height="10.8236" fill="white" transform="translate(0.397461 0.19043)"/>
</clipPath>
</defs>
</svg>
