<svg width="20" height="20" viewBox="0 0 20 20" fill="none" xmlns="http://www.w3.org/2000/svg">
<path d="M10.0002 7.5C9.33712 7.5 8.70124 7.76339 8.2324 8.23223C7.76355 8.70107 7.50016 9.33696 7.50016 10C7.50016 10.663 7.76355 11.2989 8.2324 11.7678C8.70124 12.2366 9.33712 12.5 10.0002 12.5C10.6632 12.5 11.2991 12.2366 11.7679 11.7678C12.2368 11.2989 12.5002 10.663 12.5002 10C12.5002 9.33696 12.2368 8.70107 11.7679 8.23223C11.2991 7.76339 10.6632 7.5 10.0002 7.5ZM10.0002 14.1667C8.89509 14.1667 7.83529 13.7277 7.05388 12.9463C6.27248 12.1649 5.8335 11.1051 5.8335 10C5.8335 8.89493 6.27248 7.83512 7.05388 7.05372C7.83529 6.27232 8.89509 5.83333 10.0002 5.83333C11.1052 5.83333 12.165 6.27232 12.9464 7.05372C13.7278 7.83512 14.1668 8.89493 14.1668 10C14.1668 11.1051 13.7278 12.1649 12.9464 12.9463C12.165 13.7277 11.1052 14.1667 10.0002 14.1667M10.0002 3.75C5.8335 3.75 2.27516 6.34167 0.833496 10C2.27516 13.6583 5.8335 16.25 10.0002 16.25C14.1668 16.25 17.7252 13.6583 19.1668 10C17.7252 6.34167 14.1668 3.75 10.0002 3.75Z" fill="#A7A7A7"/>
</svg>
