<svg width="1384" height="634" viewBox="0 0 1384 634" fill="none" xmlns="http://www.w3.org/2000/svg">
<rect width="1384" height="634" rx="10" fill="#E2EBF5"/>
<path d="M128.919 377.85C80.2691 381.056 22.9078 423.8 0 442.013V623C0 628.523 4.47718 633 10 633H1374C1379.52 633 1384 628.553 1384 623.03V390.883C1318 458.5 1196 398.5 1126.66 415.446C1058.24 432.168 1035.87 443.923 964.5 459.057C823.07 489.046 729 364.906 632.5 390.883C536 416.86 561.5 443.741 478.556 459.057C386.256 476.1 333 449 310 442.013C297.521 438.222 202.5 373 128.919 377.85Z" fill="#D2E1F0" fill-opacity="0.65"/>
<g opacity="0.3">
<mask id="path-3-inside-1_351_11316" fill="white">
<path d="M1 10C1 4.47715 5.47715 0 11 0H1374C1379.52 0 1384 4.47715 1384 10V25H1V10Z"/>
</mask>
<path d="M1 10C1 4.47715 5.47715 0 11 0H1374C1379.52 0 1384 4.47715 1384 10V25H1V10Z" fill="#80AED7" fill-opacity="0.54"/>
<path d="M1 0H1384H1ZM1384 26H1V24H1384V26ZM1 25V0V25ZM1384 0V25V0Z" fill="#3C81BD" mask="url(#path-3-inside-1_351_11316)"/>
</g>
</svg>
