<svg width="25" height="25" viewBox="0 0 25 25" fill="none" xmlns="http://www.w3.org/2000/svg">
<path d="M21.9193 17.7039H7.91931V3.70393H21.9193M21.9193 1.70393H7.91931C7.38888 1.70393 6.88017 1.91465 6.5051 2.28972C6.13003 2.66479 5.91931 3.1735 5.91931 3.70393V17.7039C5.91931 18.2344 6.13003 18.7431 6.5051 19.1181C6.88017 19.4932 7.38888 19.7039 7.91931 19.7039H21.9193C22.4497 19.7039 22.9585 19.4932 23.3335 19.1181C23.7086 18.7431 23.9193 18.2344 23.9193 17.7039V3.70393C23.9193 3.1735 23.7086 2.66479 23.3335 2.28972C22.9585 1.91465 22.4497 1.70393 21.9193 1.70393ZM3.91931 5.70393H1.91931V21.7039C1.91931 22.2344 2.13003 22.7431 2.5051 23.1181C2.88017 23.4932 3.38888 23.7039 3.91931 23.7039H19.9193V21.7039H3.91931M16.8793 10.9939L14.1293 14.5339L12.1693 12.1739L9.41931 15.7039H20.4193L16.8793 10.9939Z" fill="#386CAA"/>
</svg>
