<svg width="169" height="174" viewBox="0 0 169 174" fill="none" xmlns="http://www.w3.org/2000/svg">
<g clip-path="url(#clip0_443_113)">
<path d="M84.481 173.055C131.139 173.055 168.962 151.217 168.962 124.277C168.962 97.3374 131.139 75.4985 84.481 75.4985C37.8235 75.4985 0 97.3374 0 124.277C0 151.217 37.8235 173.055 84.481 173.055Z" fill="#F5F5F5"/>
<path d="M26.1889 136.405C34.5408 136.405 41.3113 132.18 41.3113 126.968C41.3113 121.756 34.5408 117.531 26.1889 117.531C17.837 117.531 11.0664 121.756 11.0664 126.968C11.0664 132.18 17.837 136.405 26.1889 136.405Z" fill="#E0E0E0"/>
<path d="M129.659 153.991L46.1632 105.781C45.4052 105.327 45.4052 104.227 46.1632 103.811L59.6559 96.0409C60.793 95.3965 62.1574 95.3965 63.2565 96.0409L146.752 144.251C147.51 144.706 147.51 145.805 146.752 146.222L133.259 153.991C132.122 154.636 130.758 154.636 129.659 153.991Z" fill="#E0E0E0"/>
<path d="M142.659 129.052L147.359 131.781C147.359 131.781 145.009 124.239 146.298 116.621C146.79 113.74 147.851 112.338 148.193 111.542C148.572 110.784 151.376 106.047 148.913 103.848C146.411 101.65 140.574 106.009 140.84 117.72C140.991 123.746 142.659 129.052 142.659 129.052Z" fill="#4C9C6C"/>
<path opacity="0.3" d="M142.659 129.052L147.359 131.781C147.359 131.781 145.009 124.239 146.298 116.621C146.79 113.74 147.851 112.338 148.193 111.542C148.572 110.784 151.376 106.047 148.913 103.848C146.411 101.65 140.574 106.009 140.84 117.72C140.991 123.746 142.659 129.052 142.659 129.052Z" fill="black"/>
<path d="M144.858 130.493C144.782 130.493 144.706 130.455 144.706 130.379C144.706 130.341 142.925 125.414 143 117.53C143.076 109.609 147.245 105.364 147.283 105.326C147.359 105.251 147.473 105.251 147.511 105.326C147.586 105.402 147.586 105.516 147.511 105.554C147.473 105.592 143.417 109.723 143.304 117.53C143.228 125.376 144.971 130.227 144.971 130.265C145.009 130.341 144.971 130.455 144.858 130.493C144.858 130.493 144.895 130.493 144.858 130.493Z" fill="white"/>
<path d="M143.986 129.772L151.756 134.32C151.756 134.32 155.319 133.79 155.054 130.455C154.788 127.119 153.348 126.323 155.129 124.845C156.911 123.367 157.403 123.291 157.29 121.851C157.214 120.411 156.228 119.767 155.774 119.198C155.319 118.63 154.03 117.417 154.94 115.711C155.849 113.968 157.062 112.3 155.243 111.504C154.182 111.011 152.363 111.618 151.188 112.906C149.975 114.195 148.989 115.105 147.89 115.37C146.753 115.673 144.403 115.673 144.479 117.644C144.555 119.615 145.048 120.259 144.593 121.131C143.645 122.799 139.855 123.67 143.986 129.772Z" fill="#4C9C6C"/>
<path d="M147.133 131.819C147.058 131.819 146.982 131.743 146.982 131.668C146.982 131.554 146.148 119.994 154.145 112.452C154.221 112.376 154.335 112.376 154.373 112.452C154.448 112.528 154.448 112.641 154.373 112.679C146.489 120.146 147.285 131.516 147.323 131.63C147.323 131.706 147.247 131.781 147.133 131.819C147.171 131.819 147.133 131.819 147.133 131.819Z" fill="white"/>
<path d="M148.535 121.889C148.459 121.889 148.383 121.813 148.383 121.737C148.156 118.667 146.033 117.113 145.995 117.113C145.92 117.076 145.92 116.962 145.958 116.886C145.995 116.81 146.109 116.81 146.185 116.848C146.261 116.924 148.459 118.516 148.686 121.737C148.724 121.813 148.648 121.889 148.535 121.889Z" fill="white"/>
<path d="M147.966 123.86C147.929 123.86 147.891 123.86 147.853 123.822C147.777 123.746 147.777 123.67 147.853 123.595C147.929 123.519 149.937 121.32 154.599 121.965C154.675 121.965 154.751 122.078 154.751 122.154C154.751 122.23 154.637 122.306 154.561 122.306C150.089 121.699 148.156 123.784 148.118 123.822C148.042 123.86 148.004 123.86 147.966 123.86Z" fill="white"/>
<path d="M135.306 94.9417L124.467 88.6123L130.948 97.4811L135.306 94.9417Z" fill="#4C9C6C"/>
<path opacity="0.6" d="M135.306 94.9417L124.467 88.6123L130.948 97.4811L135.306 94.9417Z" fill="black"/>
<path d="M128.863 118.402L65.5307 81.8276C64.9622 81.5244 64.6211 80.918 64.6211 80.2737V37.0667C64.6211 35.7022 66.0992 34.8305 67.3121 35.5127L130.644 72.0871C131.213 72.3903 131.554 72.9967 131.554 73.641V116.886C131.554 118.25 130.076 119.084 128.863 118.402Z" fill="#E0E0E0"/>
<path d="M130.948 97.4808L135.306 94.9414V146.145C135.306 147.093 134.814 147.965 133.98 148.42L129.659 150.921L130.948 97.4808Z" fill="#4C9C6C"/>
<path opacity="0.3" d="M130.948 97.4808L135.306 94.9414V146.145C135.306 147.093 134.814 147.965 133.98 148.42L129.659 150.921L130.948 97.4808Z" fill="black"/>
<path d="M126.021 120.032L62.6889 83.4578C62.1204 83.1546 61.7793 82.5482 61.7793 81.9039V38.659C61.7793 37.2945 63.2574 36.4228 64.4703 37.105L127.803 73.6794C128.371 73.9826 128.712 74.589 128.712 75.2333V118.478C128.674 119.843 127.196 120.714 126.021 120.032Z" fill="#EBEBEB"/>
<path d="M123.14 121.737L59.8081 85.1629C59.2395 84.8597 58.8984 84.2533 58.8984 83.6089V40.364C58.8984 38.9996 60.3766 38.1279 61.5894 38.8101L124.922 75.3844C125.49 75.6876 125.831 76.2941 125.831 76.9384V120.183C125.793 121.548 124.315 122.419 123.14 121.737Z" fill="#FAFAFA"/>
<path d="M49.9922 39.7955V103.355C49.9922 105.174 50.9776 106.88 52.5694 107.79L127.234 150.883C128.902 151.83 130.948 150.656 130.948 148.723V97.4806L91.5695 74.7401L84.7852 59.0491C83.5345 56.1308 81.3362 53.6672 78.5695 52.0754L53.6307 37.673C52.0009 36.7634 49.9922 37.9383 49.9922 39.7955Z" fill="#4C9C6C"/>
<path opacity="0.2" d="M49.9922 39.7955V103.355C49.9922 105.174 50.9776 106.88 52.5694 107.79L127.234 150.883C128.902 151.83 130.948 150.656 130.948 148.723V97.4806L91.5695 74.7401L84.7852 59.0491C83.5345 56.1308 81.3362 53.6672 78.5695 52.0754L53.6307 37.673C52.0009 36.7634 49.9922 37.9383 49.9922 39.7955Z" fill="black"/>
<path d="M109.155 109.153C108.927 109.039 108.738 108.925 108.548 108.85C108.397 103.96 104.986 98.1995 100.817 95.7738C99.4143 94.9779 98.0878 94.6368 96.9508 94.7505C95.3589 89.596 91.6825 84.5173 87.4376 82.0537C82.0178 78.9079 77.5455 81.182 77.1286 87.0566C76.8633 86.8671 76.598 86.7155 76.3327 86.5639C72.2015 84.1762 68.8662 86.1091 68.8662 90.8846C68.8662 95.6601 72.2015 101.459 76.3327 103.809L109.193 122.797C112.452 124.692 115.105 123.138 115.105 119.386C115.105 115.634 112.414 111.01 109.155 109.153Z" fill="#4C9C6C"/>
<path opacity="0.4" d="M109.155 109.153C108.927 109.039 108.738 108.925 108.548 108.85C108.397 103.96 104.986 98.1995 100.817 95.7738C99.4143 94.9779 98.0878 94.6368 96.9508 94.7505C95.3589 89.596 91.6825 84.5173 87.4376 82.0537C82.0178 78.9079 77.5455 81.182 77.1286 87.0566C76.8633 86.8671 76.598 86.7155 76.3327 86.5639C72.2015 84.1762 68.8662 86.1091 68.8662 90.8846C68.8662 95.6601 72.2015 101.459 76.3327 103.809L109.193 122.797C112.452 124.692 115.105 123.138 115.105 119.386C115.105 115.634 112.414 111.01 109.155 109.153Z" fill="white"/>
<path d="M81.1465 108.699L88.9162 122.836L97.1785 117.833L93.9191 115.976V101.99L85.0882 96.9116V111.011L81.1465 108.699Z" fill="white"/>
<path d="M58.8981 19.481C41.5395 19.481 26.834 30.8891 21.869 46.5801L18.7232 44.7608C18.3063 44.5334 17.8136 44.7987 17.7757 45.2536C17.1313 52.6821 18.5716 58.7084 20.3529 63.1049C21.9448 67.0845 23.8398 69.7754 24.7873 70.9503C25.0526 71.2914 25.5453 71.2156 25.7348 70.7987C27.2509 66.8949 29.3354 63.7492 31.3063 61.3235C33.3529 58.8221 35.2859 57.1165 36.385 56.2069C36.8398 55.8279 36.764 55.1457 36.2713 54.8425L32.5191 52.6821C36.4229 38.5072 49.4229 28.1224 64.8106 28.1224C80.9564 28.1224 94.4491 39.5684 97.5949 54.8046C95.8136 35.0203 79.1751 19.481 58.8981 19.481Z" fill="#4C9C6C"/>
<path opacity="0.4" d="M58.8981 19.481C41.5395 19.481 26.834 30.8891 21.869 46.5801L18.7232 44.7608C18.3063 44.5334 17.8136 44.7987 17.7757 45.2536C17.1313 52.6821 18.5716 58.7084 20.3529 63.1049C21.9448 67.0845 23.8398 69.7754 24.7873 70.9503C25.0526 71.2914 25.5453 71.2156 25.7348 70.7987C27.2509 66.8949 29.3354 63.7492 31.3063 61.3235C33.3529 58.8221 35.2859 57.1165 36.385 56.2069C36.8398 55.8279 36.764 55.1457 36.2713 54.8425L32.5191 52.6821C36.4229 38.5072 49.4229 28.1224 64.8106 28.1224C80.9564 28.1224 94.4491 39.5684 97.5949 54.8046C95.8136 35.0203 79.1751 19.481 58.8981 19.481Z" fill="white"/>
<path d="M133.599 27.5269C137.877 25.0569 137.884 17.059 133.613 9.66314C129.343 2.26725 122.414 -1.72598 118.136 0.744004C113.858 3.21399 113.851 11.2119 118.121 18.6077C122.392 26.0036 129.321 29.9969 133.599 27.5269Z" fill="#4C9C6C"/>
<path opacity="0.2" d="M133.599 27.5269C137.877 25.0569 137.884 17.059 133.613 9.66314C129.343 2.26725 122.414 -1.72598 118.136 0.744004C113.858 3.21399 113.851 11.2119 118.121 18.6077C122.392 26.0036 129.321 29.9969 133.599 27.5269Z" fill="black"/>
<path d="M132.96 27.9063C137.238 25.4363 137.244 17.4384 132.974 10.0425C128.704 2.64665 121.774 -1.34659 117.496 1.1234C113.218 3.59338 113.212 11.5913 117.482 18.9871C121.752 26.383 128.682 30.3763 132.96 27.9063Z" fill="#4C9C6C"/>
<path d="M120.866 18.1932L129.318 23.0824C129.773 23.3477 130.341 23.0066 130.341 22.5139V12.0912C130.341 11.5606 130.076 11.0678 129.621 10.8025L121.169 5.91332C120.714 5.64801 120.146 5.98912 120.146 6.48183V16.9046C120.108 17.4731 120.411 17.9279 120.866 18.1932Z" fill="#4C9C6C"/>
<path opacity="0.6" d="M120.866 18.1932L129.318 23.0824C129.773 23.3477 130.341 23.0066 130.341 22.5139V12.0912C130.341 11.5606 130.076 11.0678 129.621 10.8025L121.169 5.91332C120.714 5.64801 120.146 5.98912 120.146 6.48183V16.9046C120.108 17.4731 120.411 17.9279 120.866 18.1932Z" fill="white"/>
<path d="M121.738 16.6773L128.484 20.5811C128.863 20.8085 129.28 20.5432 129.28 20.1263V12.2808C129.28 11.8639 129.053 11.4849 128.674 11.2575L121.89 7.35369C121.511 7.16419 121.094 7.39159 121.094 7.8085V15.6161C121.132 16.0709 121.359 16.4499 121.738 16.6773Z" fill="#4C9C6C"/>
<path opacity="0.4" d="M129.317 12.2811V20.0887C129.317 20.5056 128.863 20.7709 128.522 20.5435L121.737 16.6776C121.358 16.4502 121.131 16.0712 121.131 15.6543V7.80883C121.131 7.39192 121.586 7.12661 121.927 7.35402L128.711 11.2578C129.09 11.4852 129.317 11.8642 129.317 12.2811Z" fill="white"/>
<path d="M129.317 19.823V20.0883C129.317 20.5052 128.863 20.7706 128.522 20.5431L121.737 16.6773C121.358 16.4499 121.131 16.0708 121.131 15.6539V14.8959L122.912 13.3799L124.997 16.3741L127.043 13.9484L129.317 19.823Z" fill="#FAFAFA"/>
<path d="M123.48 11.0306C123.48 11.5991 123.897 12.3192 124.39 12.6224C124.883 12.9256 125.3 12.6603 125.3 12.0918C125.3 11.5233 124.883 10.8032 124.39 10.5C123.859 10.2346 123.48 10.462 123.48 11.0306Z" fill="#FAFAFA"/>
<path d="M152.554 66.4585C156.832 63.9885 156.839 55.9907 152.569 48.5948C148.298 41.1989 141.369 37.2057 137.091 39.6756C132.813 42.1456 132.806 50.1435 137.077 57.5394C141.347 64.9353 148.276 68.9285 152.554 66.4585Z" fill="#4C9C6C"/>
<path opacity="0.2" d="M152.554 66.4585C156.832 63.9885 156.839 55.9907 152.569 48.5948C148.298 41.1989 141.369 37.2057 137.091 39.6756C132.813 42.1456 132.806 50.1435 137.077 57.5394C141.347 64.9353 148.276 68.9285 152.554 66.4585Z" fill="black"/>
<path d="M151.896 66.8052C156.174 64.3352 156.181 56.3373 151.91 48.9415C147.64 41.5456 140.711 37.5523 136.433 40.0223C132.155 42.4923 132.148 50.4902 136.418 57.8861C140.688 65.282 147.618 69.2752 151.896 66.8052Z" fill="#4C9C6C"/>
<path d="M140.118 44.8381C139.663 44.5728 139.095 44.9139 139.095 45.4066V55.8294C139.095 56.36 139.36 56.8527 139.815 57.118L148.267 62.0072C148.722 62.2725 149.29 61.9314 149.29 61.4387V53.7069L147.016 48.8556L140.118 44.8381Z" fill="#4C9C6C"/>
<path opacity="0.6" d="M140.118 44.8381C139.663 44.5728 139.095 44.9139 139.095 45.4066V55.8294C139.095 56.36 139.36 56.8527 139.815 57.118L148.267 62.0072C148.722 62.2725 149.29 61.9314 149.29 61.4387V53.7069L147.016 48.8556L140.118 44.8381Z" fill="white"/>
<path d="M146.713 50.5992L147.016 48.8179L149.29 53.6692L147.243 51.9636C146.826 51.6225 146.599 51.0919 146.713 50.5992Z" fill="#4C9C6C"/>
<path opacity="0.4" d="M146.713 50.5992L147.016 48.8179L149.29 53.6692L147.243 51.9636C146.826 51.6225 146.599 51.0919 146.713 50.5992Z" fill="white"/>
<path d="M147.509 54.6545C147.471 54.6545 147.433 54.6545 147.395 54.6166L140.725 50.7886C140.611 50.7128 140.573 50.5991 140.649 50.4854C140.725 50.3717 140.838 50.3338 140.952 50.4096L147.623 54.2754C147.736 54.3512 147.774 54.4649 147.698 54.5786C147.698 54.6166 147.623 54.6545 147.509 54.6545Z" fill="#FAFAFA"/>
<path d="M147.509 56.9287C147.471 56.9287 147.433 56.9287 147.395 56.8908L140.725 53.0249C140.611 52.9491 140.573 52.8354 140.649 52.7217C140.725 52.608 140.838 52.5701 140.952 52.6459L147.623 56.5118C147.736 56.5876 147.774 56.7013 147.698 56.815C147.698 56.8908 147.623 56.9287 147.509 56.9287Z" fill="#FAFAFA"/>
<path d="M147.509 59.1645C147.471 59.1645 147.433 59.1645 147.395 59.1266L140.725 55.2607C140.611 55.1849 140.573 55.0712 140.649 54.9575C140.725 54.8438 140.838 54.8059 140.952 54.8817L147.623 58.7476C147.736 58.8234 147.774 58.9371 147.698 59.0508C147.698 59.1266 147.623 59.1645 147.509 59.1645Z" fill="#FAFAFA"/>
<path d="M112.521 43.7027C116.799 41.2327 116.806 33.2348 112.535 25.8389C108.265 18.443 101.336 14.4498 97.0576 16.9198C92.7795 19.3898 92.7732 27.3876 97.0433 34.7835C101.313 42.1794 108.243 46.1727 112.521 43.7027Z" fill="#4C9C6C"/>
<path opacity="0.2" d="M112.521 43.7027C116.799 41.2327 116.806 33.2348 112.535 25.8389C108.265 18.443 101.336 14.4498 97.0576 16.9198C92.7795 19.3898 92.7732 27.3876 97.0433 34.7835C101.313 42.1794 108.243 46.1727 112.521 43.7027Z" fill="black"/>
<path d="M111.882 44.0826C116.16 41.6126 116.167 33.6147 111.897 26.2188C107.627 18.8229 100.697 14.8297 96.4189 17.2997C92.1409 19.7697 92.1345 27.7675 96.4046 35.1634C100.675 42.5593 107.604 46.5525 111.882 44.0826Z" fill="#4C9C6C"/>
<path d="M99.7922 34.3763L108.244 39.2655C108.699 39.5308 109.267 39.1897 109.267 38.697V28.2743C109.267 27.7437 109.002 27.2509 108.547 26.9856L100.058 22.0964C99.6027 21.8311 99.0342 22.1722 99.0342 22.6649V33.0877C99.0342 33.6562 99.2995 34.1489 99.7922 34.3763Z" fill="#4C9C6C"/>
<path opacity="0.6" d="M99.7922 34.3763L108.244 39.2655C108.699 39.5308 109.267 39.1897 109.267 38.697V28.2743C109.267 27.7437 109.002 27.2509 108.547 26.9856L100.058 22.0964C99.6027 21.8311 99.0342 22.1722 99.0342 22.6649V33.0877C99.0342 33.6562 99.2995 34.1489 99.7922 34.3763Z" fill="white"/>
<path d="M102.065 28.9186V32.4433C102.065 32.7465 102.293 32.9739 102.596 32.9739H105.666C106.121 32.9739 106.348 32.4433 106.045 32.1022L102.975 28.5774C102.672 28.1984 102.065 28.4258 102.065 28.9186Z" fill="#FAFAFA"/>
<path d="M125.868 29.3738C125.716 29.3738 125.603 29.2601 125.603 29.1085V28.3884C125.603 28.2368 125.716 28.123 125.868 28.123C126.019 28.123 126.133 28.2368 126.133 28.3884V29.1085C126.133 29.2601 126.019 29.3738 125.868 29.3738Z" fill="#4C9C6C"/>
<path d="M125.868 69.4727C125.716 69.4727 125.603 69.359 125.603 69.2074V67.7672C125.603 67.6156 125.716 67.5019 125.868 67.5019C126.019 67.5019 126.133 67.6156 126.133 67.7672V69.2074C126.133 69.359 126.019 69.4727 125.868 69.4727ZM125.868 66.5922C125.716 66.5922 125.603 66.4785 125.603 66.3269V64.8867C125.603 64.7351 125.716 64.6214 125.868 64.6214C126.019 64.6214 126.133 64.7351 126.133 64.8867V66.3269C126.133 66.4785 126.019 66.5922 125.868 66.5922ZM125.868 63.7497C125.716 63.7497 125.603 63.636 125.603 63.4844V62.0441C125.603 61.8925 125.716 61.7788 125.868 61.7788C126.019 61.7788 126.133 61.8925 126.133 62.0441V63.4844C126.133 63.636 126.019 63.7497 125.868 63.7497ZM125.868 60.8692C125.716 60.8692 125.603 60.7555 125.603 60.6039V59.1637C125.603 59.0121 125.716 58.8984 125.868 58.8984C126.019 58.8984 126.133 59.0121 126.133 59.1637V60.6039C126.133 60.7555 126.019 60.8692 125.868 60.8692ZM125.868 58.0266C125.716 58.0266 125.603 57.9129 125.603 57.7613V56.3211C125.603 56.1695 125.716 56.0558 125.868 56.0558C126.019 56.0558 126.133 56.1695 126.133 56.3211V57.7613C126.133 57.9129 126.019 58.0266 125.868 58.0266ZM125.868 55.1462C125.716 55.1462 125.603 55.0325 125.603 54.8809V53.4406C125.603 53.289 125.716 53.1753 125.868 53.1753C126.019 53.1753 126.133 53.289 126.133 53.4406V54.8809C126.133 55.0325 126.019 55.1462 125.868 55.1462ZM125.868 52.3036C125.716 52.3036 125.603 52.1899 125.603 52.0383V50.5981C125.603 50.4465 125.716 50.3328 125.868 50.3328C126.019 50.3328 126.133 50.4465 126.133 50.5981V52.0383C126.133 52.152 126.019 52.3036 125.868 52.3036ZM125.868 49.4231C125.716 49.4231 125.603 49.3094 125.603 49.1578V47.7176C125.603 47.566 125.716 47.4523 125.868 47.4523C126.019 47.4523 126.133 47.566 126.133 47.7176V49.1578C126.133 49.3094 126.019 49.4231 125.868 49.4231ZM125.868 46.5806C125.716 46.5806 125.603 46.4669 125.603 46.3153V44.875C125.603 44.7234 125.716 44.6097 125.868 44.6097C126.019 44.6097 126.133 44.7234 126.133 44.875V46.3153C126.133 46.429 126.019 46.5806 125.868 46.5806ZM125.868 43.7001C125.716 43.7001 125.603 43.5864 125.603 43.4348V41.9946C125.603 41.843 125.716 41.7293 125.868 41.7293C126.019 41.7293 126.133 41.843 126.133 41.9946V43.4348C126.133 43.5864 126.019 43.7001 125.868 43.7001ZM125.868 40.8196C125.716 40.8196 125.603 40.7059 125.603 40.5543V39.1141C125.603 38.9625 125.716 38.8488 125.868 38.8488C126.019 38.8488 126.133 38.9625 126.133 39.1141V40.5543C126.133 40.7059 126.019 40.8196 125.868 40.8196ZM125.868 37.9771C125.716 37.9771 125.603 37.8634 125.603 37.7118V36.2715C125.603 36.1199 125.716 36.0062 125.868 36.0062C126.019 36.0062 126.133 36.1199 126.133 36.2715V37.7118C126.133 37.8634 126.019 37.9771 125.868 37.9771ZM125.868 35.0966C125.716 35.0966 125.603 34.9829 125.603 34.8313V33.3911C125.603 33.2395 125.716 33.1258 125.868 33.1258C126.019 33.1258 126.133 33.2395 126.133 33.3911V34.8313C126.133 34.9829 126.019 35.0966 125.868 35.0966ZM125.868 32.254C125.716 32.254 125.603 32.1403 125.603 31.9887V30.5485C125.603 30.3969 125.716 30.2832 125.868 30.2832C126.019 30.2832 126.133 30.3969 126.133 30.5485V31.9887C126.133 32.1403 126.019 32.254 125.868 32.254Z" fill="#4C9C6C"/>
<path d="M125.868 71.6331C125.716 71.6331 125.603 71.5194 125.603 71.3677V70.6476C125.603 70.496 125.716 70.3823 125.868 70.3823C126.019 70.3823 126.133 70.496 126.133 70.6476V71.3677C126.133 71.4815 126.019 71.6331 125.868 71.6331Z" fill="#4C9C6C"/>
<path d="M132.614 54.0093C132.501 54.0093 132.425 53.9715 132.387 53.8577C132.311 53.7061 132.387 53.5545 132.501 53.4787L133.145 53.1755C133.297 53.0997 133.448 53.1755 133.486 53.2892C133.562 53.4408 133.486 53.5924 133.372 53.6682L132.728 53.9714C132.728 54.0093 132.69 54.0093 132.614 54.0093Z" fill="#4C9C6C"/>
<path d="M129.469 55.5633C129.355 55.5633 129.279 55.5254 129.241 55.4117C129.166 55.2601 129.241 55.1085 129.355 55.0706L130.947 54.2747C131.099 54.1989 131.25 54.2747 131.288 54.3884C131.364 54.54 131.288 54.6916 131.174 54.7295L129.583 55.5254C129.545 55.5633 129.507 55.5633 129.469 55.5633Z" fill="#4C9C6C"/>
<path d="M127.271 56.6622C127.157 56.6622 127.081 56.6243 127.043 56.5106C126.967 56.359 127.043 56.2074 127.157 56.1316L127.801 55.8284C127.953 55.7526 128.104 55.8284 128.142 55.9421C128.218 56.0937 128.142 56.2453 128.029 56.3211L127.384 56.6243C127.346 56.6622 127.309 56.6622 127.271 56.6622Z" fill="#4C9C6C"/>
<path d="M117.34 37.2572C117.264 37.2572 117.151 37.2193 117.113 37.1435L116.734 36.5371C116.658 36.4234 116.696 36.2339 116.81 36.1581C116.923 36.0823 117.113 36.1202 117.189 36.2339L117.568 36.8403C117.643 36.954 117.605 37.1435 117.492 37.2193C117.416 37.2572 117.378 37.2572 117.34 37.2572Z" fill="#4C9C6C"/>
<path d="M123.215 46.9599C123.139 46.9599 123.025 46.922 122.987 46.8462L122.267 45.6334C122.191 45.5197 122.229 45.3302 122.343 45.2544C122.456 45.1786 122.646 45.2165 122.722 45.3302L123.442 46.543C123.518 46.6567 123.48 46.8462 123.366 46.922C123.328 46.9599 123.252 46.9599 123.215 46.9599ZM121.736 44.5343C121.661 44.5343 121.547 44.4964 121.509 44.4206L120.789 43.2077C120.713 43.094 120.751 42.9045 120.865 42.8287C120.978 42.7529 121.168 42.7908 121.244 42.9045L121.964 44.1174C122.04 44.2311 122.002 44.4206 121.888 44.4964C121.85 44.5343 121.812 44.5343 121.736 44.5343ZM120.296 42.1086C120.22 42.1086 120.107 42.0707 120.069 41.9949L119.349 40.7821C119.273 40.6684 119.311 40.4789 119.424 40.4031C119.538 40.3273 119.728 40.3652 119.803 40.4789L120.524 41.6917C120.599 41.8054 120.561 41.9949 120.448 42.0707C120.372 42.1086 120.334 42.1086 120.296 42.1086ZM118.818 39.683C118.742 39.683 118.629 39.6451 118.591 39.5693L117.87 38.3564C117.795 38.2427 117.833 38.0532 117.946 37.9774C118.06 37.9016 118.25 37.9395 118.325 38.0532L119.045 39.2661C119.121 39.3798 119.083 39.5693 118.97 39.6451C118.894 39.683 118.856 39.683 118.818 39.683Z" fill="#4C9C6C"/>
<path d="M124.314 48.7797C124.238 48.7797 124.124 48.7418 124.086 48.666L123.707 48.0596C123.632 47.9459 123.67 47.7564 123.783 47.6806C123.897 47.6047 124.086 47.6426 124.162 47.7564L124.541 48.3628C124.617 48.4765 124.579 48.666 124.465 48.7418C124.428 48.7797 124.39 48.7797 124.314 48.7797Z" fill="#4C9C6C"/>
</g>
<defs>
<clipPath id="clip0_443_113">
<rect width="169" height="173.055" fill="white"/>
</clipPath>
</defs>
</svg>
